<svg xmlns="http://www.w3.org/2000/svg" viewBox="0 0 1200 800" preserveAspectRatio="xMidYMid slice">
  <g fill="none" stroke="#FF3B00" stroke-opacity="0.25" stroke-width="2">
    <path d="M0,600 C200,560 260,520 340,500 C460,470 520,440 640,420 C760,400 820,360 940,320 C1020,290 1080,260 1200,240"/>
    <path d="M0,200 C160,240 260,300 340,340 C420,380 560,420 680,460 C820,510 980,560 1200,600"/>
    <path d="M200,0 C220,120 260,200 300,280 C340,360 420,500 520,580 C620,660 760,720 900,760"/>
  </g>
</svg>
